<?xml version="1.0" encoding="utf-8"?>
<!-- Generator: Adobe Illustrator 15.0.2, SVG Export Plug-In . SVG Version: 6.00 Build 0)  -->
<!DOCTYPE svg PUBLIC "-//W3C//DTD SVG 1.1//EN" "http://www.w3.org/Graphics/SVG/1.1/DTD/svg11.dtd">
<svg version="1.1" id="Calque_1" xmlns="http://www.w3.org/2000/svg" xmlns:xlink="http://www.w3.org/1999/xlink" x="0px" y="0px"
	 width="36px" height="216px" viewBox="0 0 36 216" enable-background="new 0 0 36 216" xml:space="preserve">
<g>
	<g>
		<path fill="#2196F3" d="M4.5,1.986c2.498-0.332,5-0.652,7.501-0.988c-0.001,3.143,0,6.284,0,9.426
			c-0.006,0.741-0.136,1.549-0.658,2.111c-0.439,0.482-1.117,0.652-1.746,0.613c-0.651,0.027-1.305-0.323-1.625-0.9
			c-0.26-0.419-0.324-0.943-0.205-1.42c0.229-0.752,0.971-1.278,1.738-1.303c0.569-0.018,1.182-0.014,1.678,0.309
			c-0.016-1.96-0.004-3.919-0.004-5.875C9.218,4.216,7.261,4.496,5.3,4.756c0,2.084,0,4.169,0,6.254
			c0,0.691-0.172,1.408-0.598,1.961c-0.38,0.49-1.003,0.758-1.615,0.752c-0.543,0.014-1.123-0.115-1.545-0.483
			c-0.474-0.419-0.652-1.122-0.475-1.726c0.183-0.695,0.826-1.211,1.521-1.305c0.648-0.087,1.32,0.006,1.918,0.268
			C4.494,7.648,4.511,4.818,4.5,1.986z"/>
	</g>
	<g>
		<path fill="#4CAF50" d="M28.045,24.452c1.818-0.242,3.64-0.476,5.456-0.72c-0.001,2.285,0,4.57,0,6.855
			c-0.005,0.539-0.099,1.125-0.479,1.535c-0.32,0.352-0.813,0.475-1.27,0.445c-0.476,0.02-0.949-0.234-1.182-0.654
			c-0.189-0.305-0.237-0.686-0.148-1.033c0.168-0.547,0.705-0.93,1.264-0.947c0.414-0.013,0.858-0.01,1.222,0.225
			c-0.013-1.426-0.005-2.852-0.005-4.273c-1.426,0.188-2.85,0.391-4.274,0.58c0,1.516,0,3.033,0,4.549
			c0.001,0.502-0.124,1.023-0.437,1.426c-0.273,0.355-0.727,0.551-1.172,0.547c-0.398,0.011-0.817-0.084-1.125-0.353
			c-0.344-0.304-0.476-0.815-0.346-1.255c0.133-0.505,0.602-0.88,1.106-0.947c0.472-0.063,0.959,0.004,1.396,0.193
			C28.043,28.57,28.054,26.512,28.045,24.452z"/>
	</g>
	<g>
		<path fill="#E91E63" d="M11.409,19.43c1.361-0.183,2.729-0.357,4.091-0.539c0,1.713,0,3.428,0,5.142
			c-0.003,0.403-0.073,0.844-0.358,1.151c-0.24,0.262-0.609,0.354-0.951,0.334c-0.356,0.015-0.713-0.177-0.887-0.492
			c-0.142-0.229-0.177-0.514-0.11-0.774c0.125-0.41,0.528-0.696,0.946-0.711c0.312-0.009,0.646-0.006,0.916,0.169
			c-0.008-1.068-0.002-2.139-0.002-3.206c-1.069,0.142-2.137,0.293-3.207,0.435c0,1.138,0,2.275,0,3.412
			c0,0.377-0.094,0.77-0.324,1.069c-0.208,0.269-0.549,0.414-0.883,0.41c-0.295,0.008-0.611-0.063-0.842-0.265
			c-0.259-0.228-0.355-0.61-0.259-0.941c0.101-0.378,0.451-0.66,0.83-0.711c0.354-0.049,0.72,0.003,1.045,0.146
			C11.407,22.518,11.415,20.973,11.409,19.43z"/>
	</g>
	<g>
		<path fill="#FFC107" d="M24.409,7.43c1.363-0.183,2.729-0.357,4.091-0.539c-0.001,1.713,0,3.428,0,5.142
			c-0.004,0.403-0.073,0.844-0.36,1.151c-0.239,0.262-0.608,0.355-0.95,0.334c-0.356,0.015-0.714-0.177-0.886-0.492
			c-0.145-0.229-0.18-0.514-0.111-0.773c0.125-0.41,0.529-0.697,0.947-0.711c0.31-0.009,0.644-0.007,0.916,0.169
			c-0.01-1.069-0.004-2.138-0.004-3.205c-1.069,0.142-2.139,0.293-3.207,0.435c0,1.138,0,2.275,0,3.412
			c0.002,0.377-0.092,0.769-0.324,1.069c-0.209,0.267-0.549,0.414-0.883,0.41c-0.295,0.008-0.611-0.063-0.842-0.265
			c-0.259-0.228-0.355-0.611-0.26-0.941c0.1-0.379,0.451-0.66,0.831-0.711c0.354-0.048,0.72,0.003,1.045,0.146
			C24.407,10.518,24.415,8.973,24.409,7.43z"/>
	</g>
	<g>
		<path fill="#2196F3" d="M4.683,38.475c2.271-0.303,4.545-0.594,6.818-0.898c-0.001,2.857,0,5.713,0,8.57
			c-0.006,0.674-0.124,1.406-0.598,1.918c-0.4,0.438-1.016,0.595-1.587,0.558c-0.593,0.024-1.187-0.293-1.478-0.817
			c-0.236-0.382-0.295-0.857-0.186-1.291c0.208-0.685,0.882-1.162,1.58-1.186c0.518-0.016,1.074-0.012,1.525,0.281
			c-0.015-1.782-0.005-3.563-0.005-5.342c-1.782,0.233-3.562,0.487-5.344,0.725c0,1.895,0,3.791,0,5.686
			c0,0.629-0.156,1.28-0.543,1.782c-0.347,0.446-0.912,0.688-1.47,0.685c-0.493,0.014-1.021-0.104-1.403-0.439
			c-0.431-0.38-0.593-1.02-0.433-1.568c0.166-0.632,0.752-1.102,1.385-1.187c0.589-0.079,1.199,0.006,1.742,0.243
			C4.677,43.622,4.692,41.049,4.683,38.475z"/>
	</g>
	<g>
		<path fill="#4CAF50" d="M27.863,59.965c2.045-0.271,4.093-0.533,6.138-0.809c-0.001,2.57,0,5.141,0,7.712
			c-0.004,0.606-0.111,1.267-0.539,1.728c-0.359,0.395-0.914,0.533-1.428,0.5c-0.534,0.022-1.068-0.264-1.329-0.736
			c-0.214-0.342-0.267-0.771-0.167-1.162c0.188-0.614,0.793-1.045,1.422-1.065c0.465-0.014,0.967-0.011,1.373,0.253
			c-0.014-1.604-0.005-3.207-0.005-4.808c-1.604,0.211-3.206,0.438-4.81,0.651c0,1.707,0,3.412,0,5.117
			c0.002,0.565-0.14,1.152-0.489,1.604c-0.31,0.4-0.819,0.621-1.32,0.615c-0.446,0.012-0.919-0.094-1.265-0.396
			c-0.389-0.342-0.534-0.917-0.389-1.412c0.148-0.568,0.676-0.99,1.244-1.066c0.53-0.071,1.079,0.004,1.569,0.219
			C27.86,64.596,27.872,62.279,27.863,59.965z"/>
	</g>
	<g>
		<path fill="#E91E63" d="M11.591,55.918c1.135-0.15,2.273-0.297,3.409-0.449c0,1.428,0,2.856,0,4.285
			c-0.003,0.337-0.062,0.703-0.299,0.959c-0.2,0.219-0.508,0.296-0.793,0.278c-0.296,0.012-0.593-0.146-0.737-0.41
			c-0.119-0.19-0.148-0.429-0.094-0.646c0.104-0.342,0.439-0.58,0.789-0.593c0.259-0.008,0.537-0.005,0.764,0.142
			c-0.008-0.892-0.004-1.782-0.004-2.672c-0.891,0.117-1.779,0.244-2.671,0.362c0,0.948,0,1.896,0,2.843
			c0,0.313-0.078,0.641-0.271,0.892c-0.174,0.223-0.457,0.345-0.735,0.342c-0.247,0.006-0.511-0.052-0.702-0.22
			c-0.216-0.19-0.297-0.51-0.216-0.785c0.083-0.314,0.376-0.551,0.692-0.592c0.293-0.041,0.6,0.003,0.871,0.121
			C11.589,58.491,11.597,57.205,11.591,55.918z"/>
	</g>
	<g>
		<path fill="#FFC107" d="M24.228,42.941c1.59-0.213,3.183-0.416,4.773-0.629c-0.001,2,0,3.998,0,5.998
			c-0.005,0.472-0.087,0.983-0.42,1.342c-0.279,0.308-0.711,0.416-1.109,0.391c-0.416,0.018-0.832-0.205-1.033-0.572
			c-0.168-0.268-0.209-0.601-0.131-0.904c0.146-0.479,0.617-0.813,1.105-0.83c0.361-0.01,0.751-0.008,1.068,0.197
			c-0.012-1.248-0.006-2.494-0.006-3.738c-1.246,0.164-2.492,0.342-3.739,0.507c0,1.327,0,2.653,0,3.979
			c0.001,0.439-0.108,0.896-0.378,1.248c-0.243,0.313-0.639,0.482-1.029,0.479c-0.345,0.009-0.714-0.073-0.982-0.308
			c-0.303-0.267-0.416-0.715-0.304-1.1c0.116-0.441,0.526-0.771,0.97-0.83c0.412-0.056,0.84,0.004,1.22,0.17
			C24.224,46.543,24.235,44.742,24.228,42.941z"/>
	</g>
	<g>
		<path fill="#2196F3" d="M4.864,74.964c2.043-0.272,4.091-0.534,6.137-0.81c-0.001,2.572,0,5.143,0,7.714
			c-0.005,0.606-0.111,1.267-0.539,1.728c-0.359,0.396-0.914,0.534-1.428,0.502c-0.533,0.021-1.068-0.265-1.329-0.738
			c-0.213-0.342-0.267-0.771-0.167-1.162c0.188-0.615,0.793-1.045,1.422-1.065c0.467-0.014,0.967-0.011,1.374,0.253
			c-0.013-1.604-0.004-3.207-0.004-4.808c-1.604,0.211-3.206,0.438-4.81,0.651c0,1.707,0,3.412,0,5.117
			c0,0.565-0.141,1.152-0.488,1.604c-0.313,0.401-0.821,0.62-1.322,0.614c-0.443,0.013-0.918-0.092-1.264-0.396
			c-0.389-0.342-0.534-0.917-0.389-1.413c0.148-0.568,0.676-0.99,1.244-1.066c0.53-0.071,1.08,0.004,1.568,0.219
			C4.859,79.596,4.872,77.279,4.864,74.964z"/>
	</g>
	<g>
		<path fill="#4CAF50" d="M27.681,95.477c2.271-0.304,4.547-0.595,6.819-0.899c-0.001,2.856,0,5.712,0,8.567
			c-0.004,0.674-0.124,1.408-0.599,1.92c-0.4,0.438-1.016,0.592-1.588,0.556c-0.594,0.024-1.187-0.293-1.477-0.817
			c-0.236-0.381-0.296-0.857-0.186-1.292c0.208-0.684,0.881-1.161,1.58-1.184c0.517-0.015,1.072-0.013,1.525,0.28
			c-0.017-1.781-0.007-3.563-0.007-5.34c-1.782,0.233-3.562,0.487-5.344,0.725c0,1.895,0,3.791,0,5.686
			c0.002,0.629-0.154,1.281-0.543,1.781c-0.345,0.445-0.911,0.689-1.468,0.684c-0.495,0.015-1.021-0.104-1.405-0.438
			c-0.431-0.38-0.593-1.019-0.431-1.567c0.166-0.632,0.75-1.102,1.383-1.187c0.589-0.079,1.199,0.006,1.742,0.243
			C27.679,100.622,27.691,98.049,27.681,95.477z"/>
	</g>
	<g>
		<path fill="#E91E63" d="M11.772,92.407c0.908-0.121,1.818-0.238,2.729-0.359c0,1.144,0,2.285,0,3.427
			c-0.002,0.271-0.05,0.563-0.238,0.769c-0.16,0.176-0.406,0.237-0.636,0.223c-0.237,0.011-0.475-0.116-0.59-0.327
			c-0.095-0.152-0.119-0.343-0.073-0.517c0.082-0.272,0.352-0.465,0.631-0.474c0.207-0.006,0.43-0.004,0.609,0.113
			c-0.005-0.714-0.002-1.427-0.002-2.137c-0.713,0.094-1.424,0.195-2.137,0.289c0,0.758,0,1.518,0,2.275
			c0,0.25-0.063,0.512-0.217,0.713c-0.14,0.178-0.365,0.275-0.588,0.272c-0.197,0.005-0.408-0.042-0.562-0.176
			c-0.173-0.151-0.238-0.408-0.173-0.628c0.066-0.252,0.301-0.439,0.554-0.475c0.235-0.031,0.479,0.002,0.697,0.098
			C11.771,94.465,11.777,93.436,11.772,92.407z"/>
	</g>
	<g>
		<path fill="#FFC107" d="M24.046,78.453c1.816-0.242,3.637-0.475,5.455-0.719c-0.001,2.285,0,4.568,0,6.854
			c-0.006,0.539-0.1,1.125-0.479,1.535c-0.32,0.352-0.813,0.475-1.271,0.445c-0.476,0.02-0.948-0.234-1.181-0.654
			c-0.189-0.305-0.237-0.686-0.148-1.033c0.166-0.547,0.705-0.93,1.264-0.947c0.414-0.012,0.858-0.01,1.222,0.226
			c-0.015-1.427-0.006-2.851-0.006-4.272c-1.425,0.188-2.849,0.391-4.274,0.579c0,1.517,0,3.033,0,4.548
			c0.002,0.502-0.123,1.024-0.432,1.426c-0.277,0.356-0.73,0.552-1.176,0.547c-0.396,0.012-0.816-0.082-1.125-0.352
			c-0.344-0.304-0.475-0.816-0.346-1.255c0.133-0.506,0.602-0.881,1.107-0.948c0.473-0.063,0.96,0.004,1.395,0.194
			C24.042,82.568,24.054,80.512,24.046,78.453z"/>
	</g>
	<g>
		<path fill="#2196F3" d="M5.046,111.452c1.816-0.242,3.637-0.474,5.455-0.72c-0.001,2.287,0,4.572,0,6.856
			c-0.005,0.539-0.1,1.126-0.479,1.535c-0.32,0.351-0.813,0.476-1.271,0.444c-0.474,0.021-0.948-0.233-1.182-0.653
			c-0.188-0.306-0.236-0.687-0.149-1.033c0.168-0.547,0.706-0.931,1.264-0.946c0.414-0.014,0.859-0.011,1.222,0.225
			c-0.013-1.428-0.004-2.85-0.004-4.273c-1.427,0.188-2.851,0.391-4.276,0.58c0,1.516,0,3.032,0,4.549
			c0,0.502-0.125,1.023-0.434,1.426c-0.277,0.356-0.73,0.552-1.176,0.547c-0.396,0.011-0.816-0.084-1.123-0.352
			c-0.346-0.304-0.476-0.816-0.346-1.256c0.133-0.505,0.6-0.881,1.106-0.949c0.471-0.063,0.959,0.006,1.394,0.194
			C5.041,115.57,5.054,113.512,5.046,111.452z"/>
	</g>
	<g>
		<path fill="#4CAF50" d="M27.5,130.988c2.498-0.332,5.001-0.652,7.501-0.988c-0.001,3.143,0,6.283,0,9.425
			c-0.004,0.741-0.137,1.548-0.658,2.112c-0.439,0.479-1.117,0.65-1.746,0.611c-0.652,0.025-1.305-0.322-1.623-0.9
			c-0.262-0.419-0.325-0.943-0.205-1.42c0.229-0.752,0.97-1.278,1.738-1.303c0.568-0.018,1.182-0.015,1.678,0.309
			c-0.018-1.96-0.006-3.919-0.006-5.875c-1.961,0.258-3.918,0.537-5.879,0.798c0,2.084,0,4.169,0,6.255
			c0.002,0.688-0.17,1.407-0.597,1.959c-0.38,0.489-1.003,0.758-1.614,0.752c-0.545,0.016-1.123-0.113-1.545-0.484
			c-0.474-0.418-0.654-1.119-0.475-1.725c0.184-0.693,0.824-1.211,1.521-1.305c0.646-0.088,1.318,0.007,1.916,0.268
			C27.495,136.648,27.511,133.818,27.5,130.988z"/>
	</g>
	<g>
		<path fill="#E91E63" d="M11.591,127.918c1.135-0.15,2.273-0.297,3.409-0.449c0,1.428,0,2.856,0,4.284
			c-0.003,0.337-0.062,0.703-0.299,0.96c-0.2,0.221-0.508,0.296-0.793,0.278c-0.296,0.012-0.595-0.146-0.737-0.41
			c-0.119-0.19-0.148-0.429-0.094-0.646c0.104-0.342,0.439-0.58,0.789-0.594c0.259-0.007,0.537-0.005,0.764,0.143
			c-0.008-0.891-0.004-1.782-0.004-2.672c-0.891,0.117-1.779,0.244-2.671,0.361c0,0.948,0,1.896,0,2.846
			c0,0.313-0.078,0.64-0.271,0.891c-0.174,0.223-0.457,0.345-0.735,0.342c-0.247,0.006-0.511-0.053-0.702-0.22
			c-0.216-0.19-0.297-0.511-0.216-0.786c0.083-0.314,0.376-0.549,0.692-0.592c0.293-0.041,0.6,0.004,0.871,0.121
			C11.589,130.491,11.597,129.204,11.591,127.918z"/>
	</g>
	<g>
		<path fill="#FFC107" d="M24.228,114.943c1.59-0.213,3.182-0.418,4.772-0.629c-0.001,1.998,0,3.996,0,5.996
			c-0.006,0.471-0.088,0.983-0.42,1.342c-0.28,0.309-0.711,0.416-1.11,0.391c-0.416,0.018-0.83-0.205-1.033-0.572
			c-0.166-0.267-0.207-0.6-0.129-0.904c0.146-0.479,0.617-0.813,1.104-0.828c0.361-0.01,0.751-0.008,1.067,0.197
			c-0.012-1.248-0.006-2.494-0.006-3.738c-1.246,0.164-2.491,0.343-3.738,0.507c0,1.327,0,2.653,0,3.979
			c0.001,0.438-0.108,0.896-0.378,1.248c-0.243,0.311-0.64,0.48-1.029,0.478c-0.345,0.01-0.714-0.072-0.983-0.308
			c-0.302-0.267-0.416-0.715-0.304-1.1c0.116-0.441,0.526-0.771,0.97-0.828c0.414-0.057,0.84,0.003,1.219,0.169
			C24.226,118.542,24.235,116.743,24.228,114.943z"/>
	</g>
	<g>
		<path fill="#2196F3" d="M4.863,146.963c2.044-0.271,4.092-0.533,6.138-0.809c-0.001,2.57,0,5.143,0,7.713
			c-0.005,0.605-0.111,1.268-0.537,1.729c-0.361,0.395-0.914,0.533-1.429,0.5c-0.534,0.021-1.067-0.264-1.33-0.736
			c-0.213-0.344-0.267-0.77-0.167-1.162c0.188-0.613,0.794-1.047,1.422-1.064c0.467-0.016,0.967-0.012,1.373,0.252
			c-0.013-1.604-0.004-3.205-0.004-4.808c-1.604,0.211-3.206,0.438-4.811,0.653c0,1.705,0,3.41,0,5.115
			c0,0.564-0.141,1.152-0.488,1.604c-0.313,0.402-0.822,0.621-1.323,0.615c-0.444,0.012-0.918-0.094-1.263-0.395
			c-0.389-0.342-0.534-0.918-0.389-1.412c0.148-0.568,0.676-0.99,1.244-1.068c0.53-0.07,1.079,0.006,1.568,0.219
			C4.859,151.596,4.872,149.279,4.863,146.963z"/>
	</g>
	<g>
		<path fill="#4CAF50" d="M27.681,167.477c2.271-0.303,4.547-0.594,6.819-0.898c-0.001,2.855,0,5.711,0,8.568
			c-0.004,0.674-0.124,1.406-0.599,1.92c-0.4,0.438-1.016,0.592-1.588,0.555c-0.594,0.025-1.187-0.293-1.477-0.816
			c-0.236-0.381-0.296-0.857-0.186-1.291c0.208-0.686,0.881-1.162,1.58-1.186c0.517-0.016,1.072-0.012,1.525,0.281
			c-0.017-1.783-0.007-3.563-0.007-5.342c-1.782,0.234-3.562,0.488-5.344,0.725c0,1.896,0,3.791,0,5.688
			c0.002,0.627-0.154,1.279-0.543,1.781c-0.345,0.443-0.911,0.688-1.468,0.684c-0.495,0.014-1.021-0.105-1.405-0.439
			c-0.431-0.381-0.593-1.02-0.431-1.568c0.166-0.631,0.75-1.102,1.383-1.186c0.589-0.08,1.199,0.006,1.742,0.242
			C27.679,172.621,27.691,170.049,27.681,167.477z"/>
	</g>
	<g>
		<path fill="#E91E63" d="M11.409,163.43c1.361-0.182,2.729-0.355,4.091-0.539c0,1.713,0,3.428,0,5.141
			c-0.003,0.404-0.073,0.844-0.358,1.152c-0.24,0.264-0.609,0.354-0.951,0.334c-0.356,0.014-0.713-0.176-0.887-0.492
			c-0.142-0.229-0.177-0.514-0.11-0.771c0.125-0.41,0.528-0.697,0.946-0.715c0.312-0.008,0.646-0.006,0.916,0.172
			c-0.008-1.068-0.002-2.141-0.002-3.205c-1.069,0.141-2.137,0.293-3.207,0.434c0,1.137,0,2.277,0,3.414
			c0,0.375-0.094,0.768-0.324,1.068c-0.208,0.268-0.549,0.414-0.883,0.408c-0.295,0.008-0.611-0.063-0.842-0.264
			c-0.259-0.229-0.355-0.611-0.259-0.943c0.101-0.377,0.451-0.656,0.83-0.709c0.354-0.049,0.72,0.006,1.045,0.146
			C11.407,166.518,11.415,164.973,11.409,163.43z"/>
	</g>
	<g>
		<path fill="#FFC107" d="M24.41,151.432c1.362-0.183,2.728-0.357,4.091-0.539c-0.001,1.713,0,3.424,0,5.139
			c-0.005,0.404-0.074,0.846-0.359,1.152c-0.24,0.264-0.609,0.355-0.951,0.334c-0.356,0.014-0.713-0.176-0.887-0.492
			c-0.144-0.229-0.179-0.514-0.11-0.773c0.125-0.41,0.528-0.697,0.946-0.711c0.311-0.01,0.645-0.008,0.916,0.17
			c-0.01-1.07-0.004-2.139-0.004-3.204c-1.068,0.142-2.138,0.294-3.205,0.435c0,1.137,0,2.273,0,3.41
			c0,0.377-0.094,0.768-0.324,1.07c-0.208,0.266-0.549,0.412-0.883,0.408c-0.295,0.01-0.611-0.063-0.842-0.264
			c-0.259-0.229-0.356-0.611-0.26-0.941c0.1-0.379,0.451-0.66,0.831-0.711c0.354-0.049,0.72,0.004,1.045,0.146
			C24.407,154.516,24.416,152.975,24.41,151.432z"/>
	</g>
	<g>
		<path fill="#2196F3" d="M4.681,182.475c2.272-0.301,4.547-0.592,6.82-0.898c-0.001,2.857,0,5.715,0,8.57
			c-0.006,0.674-0.124,1.406-0.598,1.92c-0.4,0.438-1.016,0.594-1.587,0.557c-0.593,0.023-1.187-0.293-1.478-0.818
			c-0.236-0.381-0.296-0.857-0.187-1.291c0.208-0.684,0.882-1.162,1.581-1.184c0.518-0.018,1.074-0.014,1.525,0.279
			c-0.016-1.783-0.006-3.561-0.006-5.342c-1.783,0.234-3.562,0.488-5.345,0.727c0,1.895,0,3.789,0,5.686
			c0.001,0.627-0.155,1.279-0.542,1.781c-0.348,0.445-0.913,0.689-1.471,0.684c-0.492,0.012-1.021-0.105-1.402-0.439
			c-0.432-0.379-0.593-1.02-0.432-1.566c0.166-0.633,0.75-1.104,1.383-1.189c0.588-0.078,1.199,0.008,1.742,0.244
			C4.677,187.621,4.691,185.049,4.681,182.475z"/>
	</g>
	<g>
		<path fill="#4CAF50" d="M27.863,203.965c2.045-0.271,4.093-0.533,6.138-0.811c-0.001,2.572,0,5.143,0,7.713
			c-0.004,0.605-0.111,1.268-0.539,1.729c-0.359,0.393-0.914,0.533-1.428,0.5c-0.533,0.021-1.068-0.266-1.329-0.736
			c-0.214-0.344-0.267-0.771-0.167-1.162c0.188-0.615,0.793-1.047,1.422-1.064c0.465-0.016,0.967-0.012,1.373,0.252
			c-0.013-1.604-0.004-3.205-0.004-4.807c-1.605,0.211-3.207,0.439-4.811,0.652c0,1.705,0,3.408,0,5.115
			c0.002,0.564-0.139,1.152-0.489,1.604c-0.31,0.4-0.819,0.621-1.32,0.615c-0.446,0.012-0.919-0.094-1.264-0.395
			c-0.39-0.344-0.535-0.918-0.39-1.412c0.148-0.568,0.676-0.992,1.244-1.066c0.53-0.072,1.079,0.004,1.57,0.217
			C27.86,208.596,27.872,206.281,27.863,203.965z"/>
	</g>
	<g>
		<path fill="#E91E63" d="M11.228,198.941c1.59-0.211,3.183-0.416,4.772-0.629c0,1.998,0,4,0,5.998
			c-0.004,0.471-0.086,0.984-0.419,1.344c-0.279,0.309-0.711,0.414-1.109,0.391c-0.416,0.016-0.832-0.205-1.033-0.574
			c-0.166-0.268-0.207-0.6-0.131-0.902c0.146-0.479,0.617-0.813,1.104-0.832c0.362-0.008,0.752-0.006,1.069,0.199
			c-0.01-1.246-0.004-2.496-0.004-3.74c-1.248,0.164-2.492,0.342-3.74,0.506c0,1.328,0,2.658,0,3.984
			c0,0.438-0.109,0.895-0.379,1.246c-0.243,0.313-0.639,0.482-1.029,0.479c-0.345,0.008-0.714-0.074-0.982-0.309
			c-0.303-0.266-0.416-0.713-0.303-1.102c0.116-0.438,0.526-0.768,0.969-0.826c0.412-0.057,0.84,0.006,1.22,0.17
			C11.224,202.545,11.235,200.74,11.228,198.941z"/>
	</g>
	<g>
		<path fill="#FFC107" d="M24.593,187.92c1.135-0.152,2.271-0.299,3.408-0.449c-0.001,1.428,0,2.854,0,4.283
			c-0.004,0.336-0.063,0.701-0.301,0.959c-0.2,0.219-0.508,0.297-0.792,0.277c-0.297,0.012-0.595-0.146-0.737-0.41
			c-0.121-0.189-0.15-0.428-0.094-0.645c0.104-0.342,0.441-0.582,0.789-0.592c0.258-0.008,0.536-0.006,0.764,0.141
			c-0.009-0.893-0.004-1.781-0.004-2.67c-0.891,0.117-1.781,0.244-2.671,0.361c0,0.947,0,1.895,0,2.842
			c0.001,0.313-0.077,0.641-0.271,0.893c-0.174,0.223-0.457,0.344-0.735,0.342c-0.247,0.008-0.51-0.053-0.702-0.221
			c-0.216-0.189-0.297-0.51-0.217-0.785c0.083-0.314,0.376-0.551,0.691-0.592c0.295-0.041,0.601,0.002,0.871,0.121
			C24.589,190.49,24.597,189.205,24.593,187.92z"/>
	</g>
	<rect fill="#607D8B" fill-opacity="0" width="36" height="216"/>
</g>
</svg>
